<svg xmlns="http://www.w3.org/2000/svg" xmlns:xlink="http://www.w3.org/1999/xlink" data-stacking-context="true" aria-owns="root" width="1216" height="16" viewBox="32 32 1216 16"><!-- Generated by dom-to-svg from about:srcdoc --><style/><g data-stacking-layer="rootBackgroundAndBorders"/><g data-stacking-layer="childStackingContextsWithNegativeStackLevels"/><g data-stacking-layer="inFlowNonInlineNonPositionedDescendants"/><g data-stacking-layer="nonPositionedFloats"/><g data-stacking-layer="inFlowInlineLevelNonPositionedDescendants"/><g data-stacking-layer="childStackingContextsWithStackLevelZeroAndPositionedDescendantsWithStackLevelZero"/><g data-stacking-layer="childStackingContextsWithPositiveStackLevels"/><g data-tag="div" id="root" data-z-index="auto" data-stacking-context="true" aria-owns="cat-lucide-icon1"><g data-tag="svg" id="cat-lucide-icon1" class="cat-lucide-icon" data-z-index="auto" data-stacking-context="true" mask="url(#mask-for-cat-lucide-icon11)"><g data-stacking-layer="rootBackgroundAndBorders"/><g data-stacking-layer="childStackingContextsWithNegativeStackLevels"/><g data-stacking-layer="inFlowNonInlineNonPositionedDescendants"/><g data-stacking-layer="nonPositionedFloats"/><g data-stacking-layer="inFlowInlineLevelNonPositionedDescendants"/><g data-stacking-layer="childStackingContextsWithStackLevelZeroAndPositionedDescendantsWithStackLevelZero"/><g data-stacking-layer="childStackingContextsWithPositiveStackLevels"/><mask id="mask-for-cat-lucide-icon11"><rect width="16" height="16" x="32" y="32" fill="#ffffff"/></mask><g class="svg-content cat-lucide-icon" data-view-box="0 0 24 24" data-width="1em" data-height="1em" transform="matrix(0.666667 0 0 0.666667 32 32)"><path d="m16 2-2.3 2.3a3 3 0 0 0 0 4.2l1.8 1.8a3 3 0 0 0 4.2 0L22 8" color="rgb(0, 0, 0)" fill="none" stroke="rgb(0, 0, 0)" stroke-linecap="round" stroke-linejoin="round" stroke-width="2px"/><path d="M15 15 3.3 3.3a4.2 4.2 0 0 0 0 6l7.3 7.3c.7.7 2 .7 2.8 0L15 15Zm0 0 7 7" color="rgb(0, 0, 0)" fill="none" stroke="rgb(0, 0, 0)" stroke-linecap="round" stroke-linejoin="round" stroke-width="2px"/><path d="m2.1 21.8 6.4-6.3" color="rgb(0, 0, 0)" fill="none" stroke="rgb(0, 0, 0)" stroke-linecap="round" stroke-linejoin="round" stroke-width="2px"/><path d="m19 5-7 7" color="rgb(0, 0, 0)" fill="none" stroke="rgb(0, 0, 0)" stroke-linecap="round" stroke-linejoin="round" stroke-width="2px"/></g></g></g></svg>